<svg width="151" height="151" viewBox="0 0 151 151" fill="none" xmlns="http://www.w3.org/2000/svg">
<g clip-path="url(#clip0)">
<rect width="150.098" height="150.107" transform="translate(0 0.436279)" fill="white"/>
<path d="M31.2705 147.549C31.2705 148.518 31.3629 149.575 31.4554 150.544H44.4873C44.3024 149.575 44.21 148.518 44.21 147.549C44.21 145.434 44.5797 143.408 45.4115 141.382H102.715C103.547 143.408 104.009 145.522 104.009 147.549C104.009 148.518 103.917 149.575 103.732 150.544H116.856C116.949 149.575 117.041 148.606 117.041 147.549C117.041 133.983 107.336 121.65 89.6832 112.664L87.5574 111.607L89.6832 110.55C107.336 101.565 117.041 89.2322 117.041 75.6661C117.041 62.1001 107.336 49.7673 89.6832 40.782L87.5574 39.7249L89.6832 38.6678C107.336 29.6825 117.041 17.3498 117.041 3.78374C117.041 2.63856 116.949 1.49337 116.856 0.436279H103.732C104.009 1.58146 104.101 2.72665 104.101 3.78374C104.101 5.54557 103.732 7.30739 103.177 9.06921H45.1343C44.5797 7.30739 44.21 5.54557 44.21 3.78374C44.21 2.63856 44.3024 1.49337 44.5797 0.436279H31.4554C31.3629 1.58146 31.2705 2.63856 31.2705 3.78374C31.2705 17.0855 40.513 29.3302 57.242 38.1393L60.1071 39.6369L59.9223 39.7249L60.1071 39.813L57.242 41.3106C40.513 50.1197 31.2705 62.3644 31.2705 75.6661C31.2705 88.9679 40.513 101.213 57.242 110.022L60.1071 111.519L59.9223 111.607L60.1071 111.695L57.242 113.193C40.513 122.09 31.2705 134.247 31.2705 147.549ZM48.3691 15.1475H99.6651C96.1529 19.7282 90.6998 24.0447 83.4907 27.6565L73.786 32.5896L63.5269 27.216C56.7798 23.6923 51.604 19.5521 48.3691 15.1475ZM63.5269 52.0577L73.786 46.6841L83.4907 51.6173C90.1453 54.9647 95.2287 58.9288 98.7408 63.0691H49.201C52.5283 59.105 57.3344 55.4052 63.5269 52.0577ZM44.21 75.6661C44.21 73.552 44.6721 71.3497 45.504 69.2355H102.623C103.547 71.3497 104.009 73.4639 104.009 75.6661C104.009 77.7803 103.547 79.9826 102.623 82.0968H45.504C44.6721 79.9826 44.21 77.7803 44.21 75.6661ZM49.201 88.1751H98.7408C95.2287 92.3154 90.0528 96.2795 83.4907 99.6269L73.786 104.56L63.5269 99.1865C57.3344 95.9271 52.5283 92.2273 49.201 88.1751ZM63.5269 124.028L73.786 118.655L83.4907 123.588C90.2377 127.023 95.4135 130.987 98.9257 135.216H49.0161C52.3434 131.164 57.1495 127.376 63.5269 124.028Z" fill="#003B7C"/>
</g>
<defs>
<clipPath id="clip0">
<rect width="150.098" height="150.107" fill="white" transform="translate(0 0.436279)"/>
</clipPath>
</defs>
</svg>
