<svg width="151" height="151" viewBox="0 0 151 151" fill="none" xmlns="http://www.w3.org/2000/svg">
<g clip-path="url(#clip0)">
<path d="M66.2712 0.436279V51.4145H83.3499V92.8508C90.0406 97.7101 98.3158 100.537 107.207 100.537H109.32C131.945 100.537 150.256 82.1604 150.256 59.4543V0.436279H66.2712ZM92.5936 21.7287C96.9072 21.7287 100.517 25.2627 100.517 29.6803C100.517 34.0094 96.9953 37.6318 92.5936 37.6318C88.2799 37.6318 84.6705 34.0978 84.6705 29.6803C84.6705 25.2627 88.1918 21.7287 92.5936 21.7287ZM92.5936 50.1775C96.203 50.1775 99.1081 53.0931 99.1081 56.7155C99.1081 61.8398 103.246 66.0806 108.44 66.0806C113.546 66.0806 117.771 61.9282 117.771 56.7155C117.771 53.0931 120.677 50.1775 124.286 50.1775C127.895 50.1775 130.8 53.0931 130.8 56.7155C130.8 69.0845 120.853 79.0681 108.528 79.0681C96.2029 79.0681 86.2551 69.0845 86.2551 56.7155C86.079 53.0931 88.9841 50.1775 92.5936 50.1775ZM124.11 37.5434C119.796 37.5434 116.187 34.0094 116.187 29.5919C116.187 25.2627 119.708 21.6404 124.11 21.6404C128.512 21.6404 132.033 25.1744 132.033 29.5919C132.033 34.0094 128.512 37.5434 124.11 37.5434Z" fill="#E73445"/>
<path d="M0.157959 50.3541V111.581C0.157959 133.138 17.5888 150.543 38.9811 150.543H45.4076C66.888 150.543 84.2308 133.05 84.2308 111.581V50.3541H0.157959ZM72.1701 111.581C72.1701 126.424 60.1974 138.439 45.4076 138.439H38.9811C24.1913 138.439 12.2187 126.424 12.2187 111.581V62.4581H72.1701V111.581Z" fill="#E73445"/>
<path d="M22.6941 121.564C22.6941 124.922 25.4232 127.572 28.6804 127.572C32.0258 127.572 34.6668 124.833 34.6668 121.564C34.6668 117.412 38.0121 114.055 42.1497 114.055C46.2873 114.055 49.6326 117.412 49.6326 121.564C49.6326 124.922 52.3617 127.572 55.619 127.572C58.8763 127.572 61.6053 124.833 61.6053 121.564C61.6053 110.786 52.8899 101.951 42.0617 101.951C31.4095 101.951 22.6941 110.697 22.6941 121.564Z" fill="#E73445"/>
<path d="M28.6824 91.1713C32.732 91.1713 35.9892 87.9023 35.9892 83.8382C35.9892 79.7741 32.732 76.5051 28.6824 76.5051C24.6328 76.5051 21.3755 79.7741 21.3755 83.8382C21.3755 87.9023 24.7208 91.1713 28.6824 91.1713Z" fill="#E73445"/>
<path d="M55.7055 91.1713C59.7551 91.1713 63.0124 87.9023 63.0124 83.8382C63.0124 79.7741 59.7551 76.5051 55.7055 76.5051C51.6559 76.5051 48.3987 79.7741 48.3987 83.8382C48.3987 87.9023 51.6559 91.1713 55.7055 91.1713Z" fill="#E73445"/>
</g>
<defs>
<clipPath id="clip0">
<rect width="150.098" height="150.107" fill="white" transform="translate(0.157959 0.436279)"/>
</clipPath>
</defs>
</svg>
