<svg width="151" height="151" viewBox="0 0 151 151" fill="none" xmlns="http://www.w3.org/2000/svg">
<g clip-path="url(#clip0)">
<path d="M44.2576 42.9608H96.8699C98.5415 42.9608 99.9492 41.5522 99.9492 39.8793C99.9492 38.2065 98.5415 36.7979 96.8699 36.7979H44.2576C42.5859 36.7979 41.1782 38.2065 41.1782 39.8793C41.1782 41.5522 42.5859 42.9608 44.2576 42.9608Z" fill="#3DA6EE"/>
<path d="M44.2576 61.3621H80.2417C81.9134 61.3621 83.3211 59.9534 83.3211 58.2806C83.3211 56.6078 81.9134 55.1991 80.2417 55.1991H44.2576C42.5859 55.1991 41.1782 56.6078 41.1782 58.2806C41.1782 59.9534 42.5859 61.3621 44.2576 61.3621Z" fill="#3DA6EE"/>
<path d="M44.2576 80.8191H65.285C66.9566 80.8191 68.3643 79.4104 68.3643 77.7376C68.3643 76.0648 66.9566 74.6561 65.285 74.6561H44.2576C42.5859 74.6561 41.1782 76.0648 41.1782 77.7376C41.1782 79.4104 42.5859 80.8191 44.2576 80.8191Z" fill="#3DA6EE"/>
<path d="M63.0852 108.025C63.0852 106.352 61.6775 104.943 60.0059 104.943H44.3454C42.6738 104.943 41.2661 106.352 41.2661 108.025C41.2661 109.698 42.6738 111.106 44.3454 111.106H60.0059C61.6775 111.106 63.0852 109.698 63.0852 108.025Z" fill="#3DA6EE"/>
<path d="M144.203 27.7295C140.772 24.3839 136.109 22.7111 131.182 22.9752C126.431 23.2393 121.944 25.2643 118.601 28.786L117.809 29.5784V25.8806C117.809 11.7938 106.46 0.436279 92.3826 0.436279H19.2703C17.7746 0.436279 16.1031 0.436279 16.1031 0.436279C6.86511 0.436279 -0.613281 8.096 -0.613281 17.3405C-0.613281 26.585 6.86511 34.0686 16.1031 34.0686V21.8307C13.6396 21.8307 11.7041 19.8057 11.7041 17.4285C11.7041 14.9633 13.7276 13.0264 16.1031 13.0264C18.4786 13.0264 20.4142 14.9633 20.5022 17.3405V124.488C20.5022 138.311 31.4997 149.581 45.2247 149.933C45.3127 149.933 45.4006 149.933 45.4006 149.933H117.193C126.431 149.933 133.91 142.361 133.118 133.117C132.414 125.193 125.815 118.942 117.721 118.942V81.0834L134.525 63.4749L134.789 56.2554L142.884 54.7586L144.291 53.35C147.635 49.8282 149.482 45.25 149.482 40.4957C149.57 35.5653 147.635 31.0751 144.203 27.7295ZM44.6089 127.482C45.8406 129.155 48.128 132.148 46.7203 135.142C46.3684 135.934 44.6088 137.343 42.1454 137.343C35.5468 137.343 32.7314 130.74 32.7314 124.577V17.4285C32.7314 17.4285 32.9074 14.4351 32.2915 12.8503H92.3826C99.5971 12.8503 105.492 18.7492 105.492 25.9687V42.6087L76.1061 73.4237C71.7071 78.0019 72.2349 88.567 73.3786 96.5789L73.4667 97.3713L67.6599 104.063C66.5161 105.295 66.5162 107.232 67.7479 108.377C68.3638 108.905 69.0676 109.257 69.8594 109.257C70.6512 109.257 71.4431 108.905 72.0589 108.289L77.7777 101.773L78.8334 101.862C81.1209 102.126 83.6725 102.214 86.224 102.214C92.4706 102.214 98.6292 101.245 101.797 97.9876L105.492 94.1137V119.03H48.568C44.257 118.942 41.9695 123.96 44.6089 127.482ZM120.976 134.173C121.064 135.054 120.8 135.758 120.185 136.374C119.481 137.167 118.425 137.607 117.281 137.607H58.9498C59.4777 135.758 59.6537 133.645 59.3897 131.268H117.809C119.393 131.268 120.801 132.588 120.976 134.173ZM136.461 43.4892L123 46.0424L122.56 58.3684L93.2624 89.0953C91.9427 89.6236 88.6874 89.8877 85.0802 89.7996C84.8162 86.1899 84.9921 82.9323 85.432 81.6117L127.575 37.3262C129.863 34.949 133.558 34.5969 135.757 36.6218C137.429 38.3827 137.693 41.2001 136.461 43.4892Z" fill="#3DA6EE"/>
</g>
<defs>
<clipPath id="clip0">
<rect width="150.098" height="150.107" fill="white" transform="translate(0.137695 0.436279)"/>
</clipPath>
</defs>
</svg>
