<svg width="152" height="151" viewBox="0 0 152 151" fill="none" xmlns="http://www.w3.org/2000/svg">
<g clip-path="url(#clip0)">
<path d="M112.485 76.3289C128.386 61.5656 136.336 47.156 131.566 38.7578C128.916 34.1609 122.82 32.0392 114.516 32.0392C107.537 32.0392 98.9685 33.5421 89.5161 36.5477C84.7457 15.3311 76.1766 1.27515 66.5475 1.27515C56.8301 1.27515 48.3494 15.4195 43.579 36.5477C34.1266 33.6305 25.5576 32.0392 18.5787 32.0392C10.2747 32.0392 4.17915 34.2493 1.52893 38.7578C-3.3298 47.156 4.62083 61.5656 20.6105 76.3289C4.70917 91.0921 -3.24146 105.502 1.52893 113.9C4.17915 118.497 10.2747 120.619 18.5787 120.619C25.5576 120.619 34.1266 119.116 43.579 116.11C48.3494 137.327 56.9184 151.383 66.5475 151.383C76.265 151.383 84.7457 137.238 89.5161 116.11C98.9685 119.027 107.537 120.619 114.516 120.619C122.82 120.619 128.916 118.408 131.566 113.9C136.336 105.502 128.386 91.0921 112.485 76.3289ZM114.428 44.3272C117.52 44.3272 119.464 44.7692 120.435 45.1228C119.994 47.3328 117.697 52.9022 110.011 61.3004C107.891 63.5989 105.506 65.8974 102.944 68.2842C99.852 65.809 96.495 63.4221 92.9614 61.0352C92.608 56.7919 92.1663 52.7254 91.6363 48.7473C101.265 45.6532 109.039 44.3272 114.428 44.3272ZM73.8798 89.1472C71.4063 90.5617 68.9327 91.9761 66.4592 93.2137C64.074 91.9761 61.6005 90.5617 59.0386 89.1472C56.565 87.7328 54.1799 86.2299 51.7947 84.7271C51.7064 81.9866 51.618 79.1577 51.618 76.3289C51.618 73.5 51.7064 70.6711 51.7947 67.9306C54.1799 66.4278 56.565 65.0133 59.0386 63.5105C61.5121 62.0961 63.9857 60.6816 66.4592 59.444C68.8444 60.6816 71.318 62.0961 73.8798 63.5105C76.3534 64.9249 78.7385 66.4278 81.1237 67.9306C81.2121 70.6711 81.3005 73.5 81.3005 76.3289C81.3005 79.1577 81.2121 81.9866 81.1237 84.7271C78.7385 86.2299 76.3534 87.7328 73.8798 89.1472ZM57.7135 31.0668C61.0704 20.1933 64.7807 15.4195 66.4592 13.9167C68.226 15.4195 71.848 20.1933 75.2049 31.0668C76.1767 34.0725 76.9717 37.255 77.6784 40.7027C73.9681 42.2055 70.2579 43.8851 66.3709 45.6532C62.5722 43.7967 58.7736 42.1171 55.0633 40.7027C55.9467 37.255 56.7417 34.0725 57.7135 31.0668ZM22.9073 61.3004C15.2217 52.9022 12.8365 47.3328 12.4832 45.1228C13.4549 44.7692 15.3983 44.3272 18.4903 44.3272C23.879 44.3272 31.7414 45.5648 41.1938 48.6589C40.6638 52.637 40.2221 56.7035 39.8687 60.9468C36.3351 63.3337 33.0665 65.809 29.8862 68.1958C27.4127 65.9858 25.0275 63.5989 22.9073 61.3004ZM18.4903 108.331C15.3983 108.331 13.4549 107.889 12.4832 107.535C12.9249 105.325 15.2217 99.7555 22.9073 91.3573C25.0275 89.0588 27.4127 86.7604 29.9745 84.3735C33.0664 86.8488 36.4234 89.2356 39.9571 91.6225C40.3104 95.8658 40.7521 99.9323 41.2822 103.91C31.653 107.005 23.879 108.331 18.4903 108.331ZM75.2933 121.679C71.9363 132.553 68.226 137.327 66.5475 138.829C64.7807 137.327 61.1587 132.553 57.8018 121.679C56.83 118.674 56.035 115.491 55.3283 112.043C59.0386 110.541 62.7489 108.861 66.6358 107.093C70.4345 108.949 74.2332 110.629 77.9435 112.043C77.0601 115.403 76.1767 118.674 75.2933 121.679ZM114.428 108.331C109.039 108.331 101.177 107.093 91.7246 103.999C92.2546 100.021 92.6963 95.9542 93.0497 91.7109C96.5833 89.324 99.8518 86.8488 103.032 84.4619C105.594 86.7603 107.979 89.1472 110.099 91.4457C117.785 99.8439 120.17 105.413 120.524 107.623C119.552 107.889 117.608 108.331 114.428 108.331Z" fill="#003B7C"/>
<path d="M66.4586 85.0807C71.2888 85.0807 75.2044 81.1624 75.2044 76.3289C75.2044 71.4954 71.2888 67.577 66.4586 67.577C61.6285 67.577 57.7129 71.4954 57.7129 76.3289C57.7129 81.1624 61.6285 85.0807 66.4586 85.0807Z" fill="#003B7C"/>
</g>
<defs>
<clipPath id="clip0">
<rect width="150.098" height="150.107" fill="white" transform="translate(0.939453 0.436279)"/>
</clipPath>
</defs>
</svg>
