<svg width="151" height="151" viewBox="0 0 151 151" fill="none" xmlns="http://www.w3.org/2000/svg">
<g clip-path="url(#clip0)">
<path d="M68.6961 78.2707C68.6961 75.3586 67.5464 72.623 65.5121 70.5051L35.0853 40.0605C32.6971 37.6778 28.717 37.6778 26.3289 40.0605C23.9407 42.4431 23.9407 46.4141 26.3289 48.7967L44.9033 67.4165L45.8763 68.4755C47.2031 69.7991 47.4684 72.0053 46.3186 73.5054C44.9918 75.2704 42.5151 75.4468 40.8345 74.0349L11.6461 48.2673V6.8802C11.6461 3.52688 8.99282 0.526538 5.63173 0.438293C2.09374 0.350048 -0.736816 3.1739 -0.736816 6.61547V63.7102C-0.736816 67.5048 0.85532 71.2111 3.50881 73.7702L35.7046 105.009C36.8545 106.156 37.5619 107.745 37.5619 109.333V150.544H68.6961V78.2707Z" fill="#7F6FEE"/>
<path d="M79.9307 78.2707C79.9307 75.3586 81.0804 72.623 83.1147 70.5051L113.541 40.0605C115.93 37.6778 119.91 37.6778 122.298 40.0605C124.686 42.4431 124.686 46.4141 122.298 48.7967L103.723 67.4165L102.75 68.4755C101.424 69.7991 101.158 72.0053 102.308 73.5054C103.635 75.2704 106.112 75.4468 107.792 74.0349L136.981 48.2673V6.8802C136.981 3.52688 139.634 0.526538 142.995 0.438293C146.533 0.350048 149.363 3.1739 149.363 6.61547V63.7102C149.363 67.5048 147.771 71.2111 145.118 73.7702L112.922 105.009C111.772 106.156 111.065 107.745 111.065 109.333V150.544H79.9307V78.2707Z" fill="#7F6FEE"/>
</g>
<defs>
<clipPath id="clip0">
<rect width="150.098" height="150.107" fill="white" transform="translate(0.548828 0.436279)"/>
</clipPath>
</defs>
</svg>
