<svg width="151" height="151" viewBox="0 0 151 151" fill="none" xmlns="http://www.w3.org/2000/svg">
<g clip-path="url(#clip0)">
<path d="M135.808 0.436279H10.1517C4.78103 0.436279 0.518555 4.9395 0.518555 10.414V150.544L29.4179 120.522H135.808C141.179 120.522 145.441 116.019 145.441 110.544V10.414C145.441 4.8512 141.093 0.436279 135.808 0.436279ZM66.842 86.9688H26.6047V33.195H65.8191V43.1727H38.5395V54.8281H62.6649V64.541H38.5395V76.991H66.7567V86.9688H66.842ZM98.9807 87.94C90.7116 87.94 82.4424 85.3794 77.839 81.7592L81.931 72.3995C86.2786 75.6666 92.8429 78.0506 99.066 78.0506C106.227 78.0506 109.04 75.5783 109.04 72.3112C109.04 62.2452 78.8621 69.1325 78.8621 49.177C78.8621 39.994 86.023 32.4003 100.771 32.4003C107.335 32.4003 113.984 33.9897 118.758 37.1684L115.093 46.6164C110.234 43.7908 105.289 42.378 100.686 42.378C93.5248 42.378 90.7969 45.1153 90.7969 48.5589C90.7969 58.4484 120.975 51.6494 120.975 71.3399C121.06 80.2581 113.899 87.94 98.9807 87.94Z" fill="#EF809A"/>
</g>
<defs>
<clipPath id="clip0">
<rect width="150.098" height="150.107" fill="white" transform="translate(0.518555 0.436279)"/>
</clipPath>
</defs>
</svg>
