<svg width="151" height="151" viewBox="0 0 151 151" fill="none" xmlns="http://www.w3.org/2000/svg">
<g clip-path="url(#clip0)">
<path d="M150.196 75.5788C150.196 54.7947 141.852 36.0535 128.183 22.4639C114.602 8.87427 95.8729 0.5251 75.1912 0.436279C33.7389 0.436279 0.186419 34.0106 0.0976562 75.4011C0.0976562 96.1852 8.44141 114.926 22.1109 128.516C35.6916 142.106 54.4206 150.455 75.1023 150.544C116.555 150.544 150.196 116.969 150.196 75.5788ZM122.768 115.992L98.6245 91.7442C109.631 82.2404 123.212 76.5558 137.68 75.3123V75.4011C137.68 90.5007 132.443 104.712 122.768 115.992ZM83.6236 76.6446L124.011 36.4088C130.224 44.225 134.485 53.2847 136.438 62.9662C119.129 64.4762 102.885 71.4042 89.837 82.9509L83.6236 76.6446ZM74.8362 67.8514L67.8238 60.8345C79.363 47.7778 86.2865 31.6124 87.7954 14.2035C97.9144 16.2464 107.235 20.7763 115.223 27.4378L74.8362 67.8514ZM65.9599 76.6446L27.0817 115.371C20.4245 107.377 15.9863 98.0505 13.9448 87.9249C30.5434 86.5038 46.077 80.1087 58.8589 69.4501L65.9599 76.6446ZM74.7473 85.5267L81.0496 91.9218C70.398 104.712 64.007 120.256 62.498 136.776C52.7341 134.822 43.6804 130.559 35.958 124.253L74.7473 85.5267ZM75.28 12.96H75.3686C74.126 27.4378 68.4451 40.9386 58.9475 51.9524L34.8929 27.7931C45.8107 18.4669 59.8353 12.96 75.28 12.96ZM26.1941 36.764L49.9826 60.6569C39.331 69.2725 26.3716 74.4241 12.7022 75.5788V75.49C12.7022 60.8345 17.7616 47.4226 26.1941 36.764ZM75.1023 138.02H75.0137C76.1676 124.341 81.3159 111.462 89.9259 100.804L113.714 124.697C102.796 133.312 89.3044 138.02 75.1023 138.02Z" fill="#B4DA1C"/>
</g>
<defs>
<clipPath id="clip0">
<rect width="150.098" height="150.107" fill="white" transform="translate(0.0976562 0.436279)"/>
</clipPath>
</defs>
</svg>
