<svg width="151" height="151" viewBox="0 0 151 151" fill="none" xmlns="http://www.w3.org/2000/svg">
<g clip-path="url(#clip0)">
<path d="M122.878 76.4144V12.7618H129.426V0.436279H76.3333V12.7618H83.2353V76.3263C78.3685 84.8662 64.3874 114.8 55.7156 133.728C52.2646 141.211 57.7508 149.839 66.0687 149.839H139.071C147.3 149.839 152.875 141.388 149.513 133.904C141.106 114.976 127.656 84.8662 122.878 76.4144ZM92.3496 86.3628L95.5351 79.6718V13.202H110.401V23.6787H100.667V29.8415H110.401V43.0474H100.667V49.2102H110.401V62.4161H100.667V68.5789H110.401V79.7599L113.764 86.4509H92.3496V86.3628Z" fill="#003B7C"/>
<path d="M53.5036 12.7618V0.436279H46.7785H7.13595H0.410889V12.7618H7.13595V134.785L7.22445 135.225C7.93235 140.507 12.9761 150.544 27.0457 150.544C41.1153 150.544 46.1591 140.507 46.867 135.225L46.9555 134.785V12.7618H53.5036ZM34.4787 23.6787H24.8335V29.8415H34.4787V43.0474H24.8335V49.2102H34.4787V62.4161H24.8335V68.5789H34.4787V86.3628H19.6127V12.7618H34.4787V23.6787Z" fill="#003B7C"/>
</g>
<defs>
<clipPath id="clip0">
<rect width="150.098" height="150.107" fill="white" transform="translate(0.410889 0.436279)"/>
</clipPath>
</defs>
</svg>
