<svg width="152" height="151" viewBox="0 0 152 151" fill="none" xmlns="http://www.w3.org/2000/svg">
<g clip-path="url(#clip0)">
<path d="M30.879 47.0532H23.3789V70.0991H30.879C38.0261 70.0991 42.7909 65.8608 42.7909 58.532C42.7909 51.3798 38.0261 47.0532 30.879 47.0532Z" fill="#EC4A70"/>
<path d="M143.998 -1.77563H13.9375C8.37866 -1.77563 3.9668 2.72759 3.9668 8.20209V148.332L33.8789 118.31H143.998C149.557 118.31 153.969 113.807 153.969 108.333V8.20209C153.969 2.72759 149.469 -1.77563 143.998 -1.77563ZM31.4083 79.6355H11.5552V37.6055H31.4083C45.3497 37.6055 54.8792 45.7289 54.8792 58.6205C54.7909 71.5121 45.2614 79.6355 31.4083 79.6355ZM90.6149 79.6355L87.3502 71.5121H69.6147L66.3499 79.6355H54.2615L72.7912 37.6055H84.5266L103.144 79.6355H90.6149ZM145.763 79.6355H108.174V72.1302L129.351 46.9651H108.703V37.6055H144.88V45.0225L123.704 70.1876H145.763V79.6355Z" fill="#EC4A70"/>
<path d="M73.0552 62.6824H83.82L78.4376 49.261L73.0552 62.6824Z" fill="#EC4A70"/>
</g>
<defs>
<clipPath id="clip0">
<rect width="150.098" height="150.107" fill="white" transform="translate(0.97998 0.436279)"/>
</clipPath>
</defs>
</svg>
