<svg width="151" height="151" viewBox="0 0 151 151" fill="none" xmlns="http://www.w3.org/2000/svg">
<g clip-path="url(#clip0)">
<path d="M46.13 43.4381H34.7402V76.8149H46.13C56.8135 76.8149 63.7887 70.4574 63.7887 60.1265C63.7887 49.7956 56.8135 43.4381 46.13 43.4381Z" fill="#EC4A70"/>
<path d="M140.602 0.436279H10.546C4.98349 0.436279 0.568848 4.9395 0.568848 10.414V150.544L30.5002 120.522H140.69C146.253 120.522 150.667 116.019 150.667 110.544V10.414C150.667 4.9395 146.164 0.436279 140.602 0.436279ZM46.7461 86.9688H22.2889V33.195H46.7461C64.3165 33.195 76.4127 43.7908 76.4127 60.126C76.4127 76.373 64.3165 86.9688 46.7461 86.9688ZM127.358 86.9688H85.7717V33.195H126.387V43.1727H98.1328V54.9164H123.12V64.6293H98.1328V76.991H127.358V86.9688Z" fill="#EC4A70"/>
</g>
<defs>
<clipPath id="clip0">
<rect width="150.098" height="150.107" fill="white" transform="translate(0.568848 0.436279)"/>
</clipPath>
</defs>
</svg>
