<svg width="151" height="151" viewBox="0 0 151 151" fill="none" xmlns="http://www.w3.org/2000/svg">
<g clip-path="url(#clip0)">
<path d="M141.188 0.436279H11.045C5.48254 0.436279 1.06787 4.9395 1.06787 10.414V150.544L30.9989 120.522H141.188C146.75 120.522 151.165 116.019 151.165 110.544V10.414C151.253 4.8512 146.75 0.436279 141.188 0.436279ZM66.6692 87.4103H25.2599V33.9014H65.6979V43.8791H37.5327V55.5345H62.3427V65.0707H37.5327V77.4325H66.6692V87.4103ZM125.56 87.4103H115.407L88.7423 54.9164V87.4103H76.4695V33.9014H86.7115L113.287 66.3952V33.9014H125.472V87.4103H125.56Z" fill="#EF809A"/>
</g>
<defs>
<clipPath id="clip0">
<rect width="150.098" height="150.107" fill="white" transform="translate(0.0874023 0.436279)"/>
</clipPath>
</defs>
</svg>
