<svg width="151" height="151" viewBox="0 0 151 151" fill="none" xmlns="http://www.w3.org/2000/svg">
<g clip-path="url(#clip0)">
<path d="M118.892 29.3149C112.528 16.6659 96.087 26.042 101.302 1.71704C89.546 1.89395 80.1764 13.57 80.4415 27.7227C80.7067 41.8754 90.3415 53.286 102.098 53.1091C113.854 52.9322 123.931 39.2218 118.892 29.3149ZM112.351 40.3717C109.965 44.2637 105.81 46.9173 102.009 46.9173C93.7004 47.0058 86.8058 38.4257 86.629 27.6342C86.5406 20.2925 89.546 13.8353 94.1424 10.474C94.4076 20.9117 100.33 24.4499 106.606 27.1035C110.053 28.5188 111.998 29.4918 113.412 32.1454C115.003 35.3298 113.235 38.9564 112.351 40.3717Z" fill="#E73445"/>
<path d="M102.983 36.8339C102.983 36.8339 100.773 36.4801 99.3591 35.1533C97.8564 33.6496 96.9724 31.3498 96.9724 31.2613C96.4421 29.6691 94.6743 28.7846 93.0833 29.3153C91.4922 29.846 90.6082 31.6151 91.1386 33.2073C91.2269 33.5611 92.4645 37.0108 95.0278 39.576C97.9448 42.4066 101.746 42.9373 102.188 43.0258C102.364 43.0258 102.453 43.0258 102.63 43.0258C104.132 43.0258 105.458 41.8758 105.635 40.3721C105.9 38.603 104.663 37.0993 102.983 36.8339Z" fill="#E73445"/>
<path d="M102.187 59.4783C97.8561 59.5667 93.7017 57.9746 90.3428 55.3209L91.4919 130.419C91.5803 138.114 96.707 150.852 102.718 150.763C108.728 150.675 113.501 137.761 113.413 130.065L112.352 55.8517C109.347 58.063 105.9 59.3898 102.187 59.4783Z" fill="#E73445"/>
<path d="M63.7359 43.7333L51.8913 24.1849H48.7976L47.5602 19.0545H54.8083C57.7252 19.0545 60.0235 16.6662 60.0235 13.8357V6.49397C60.0235 3.57497 57.6368 1.27515 54.8083 1.27515H20.8656C17.9487 1.27515 15.6504 3.66342 15.6504 6.49397V13.7472C15.6504 16.6662 18.0371 18.9661 20.8656 18.9661H28.1138L26.8763 24.0964H23.7826L11.8496 43.7333L2.30322 151.383H73.4591L63.7359 43.7333ZM27.2299 30.3767H48.3556L56.4878 43.7333H19.0978L27.2299 30.3767ZM15.8273 138.999L23.2523 56.117H52.5101L59.9351 138.999H15.8273Z" fill="#E73445"/>
</g>
<defs>
<clipPath id="clip0">
<rect width="150.098" height="150.107" fill="white" transform="translate(0.538574 0.436279)"/>
</clipPath>
</defs>
</svg>
