<svg width="152" height="151" viewBox="0 0 152 151" fill="none" xmlns="http://www.w3.org/2000/svg">
<g clip-path="url(#clip0)">
<path d="M134.41 0.436279H17.6083C8.40791 0.436279 0.959961 7.97232 0.959961 17.0857V133.894C0.959961 143.095 8.49553 150.544 17.6083 150.544H134.41C143.61 150.544 151.058 143.008 151.058 133.894V17.0857C151.058 7.97232 143.523 0.436279 134.41 0.436279ZM84.5523 34.3485L93.4022 25.498L105.144 37.2402L116.885 25.498L125.735 34.3485L113.994 46.0907L125.735 57.8329L116.885 66.6833L105.144 55.0287L93.4022 66.771L84.5523 57.9205L96.2938 46.1783L84.5523 34.3485ZM28.0355 39.7814H69.744V52.3123H28.0355V39.7814ZM71.8469 108.92H55.1986V125.57H42.5809V108.92H25.9325V96.3893H42.5809V79.7399H55.111V96.3893H71.7593V108.92H71.8469ZM126.086 119.348H84.377V106.817H126.086V119.348ZM126.086 98.4924H84.377V85.9616H126.086V98.4924Z" fill="#003B7C"/>
</g>
<defs>
<clipPath id="clip0">
<rect width="150.098" height="150.107" fill="white" transform="translate(0.959961 0.436279)"/>
</clipPath>
</defs>
</svg>
