<svg width="151" height="151" viewBox="0 0 151 151" fill="none" xmlns="http://www.w3.org/2000/svg">
<g clip-path="url(#clip0)">
<path d="M25.0456 37.7038H137.664V44.3066H150.128V37.3563C150.128 30.7536 144.647 25.454 138.017 25.454H25.0456C18.1506 25.454 12.5817 31.0142 12.5817 37.7038V111.463H0.117676V123.713H87.6308V111.463H25.1341V37.7038H25.0456ZM143.94 55.6007H106.459C103.012 55.6007 100.183 58.3808 100.183 61.7691V117.632C100.183 121.02 103.012 123.8 106.459 123.8H143.94C147.387 123.8 150.216 121.02 150.216 117.632V61.7691C150.128 58.3808 147.299 55.6007 143.94 55.6007ZM137.664 111.463H112.647V67.9375H137.664V111.463Z" fill="#FFB930"/>
</g>
<defs>
<clipPath id="clip0">
<rect width="150.098" height="150.107" fill="white" transform="translate(0.117676 0.436279)"/>
</clipPath>
</defs>
</svg>
