<svg width="151" height="151" viewBox="0 0 151 151" fill="none" xmlns="http://www.w3.org/2000/svg">
<g clip-path="url(#clip0)">
<path d="M128.109 34.6852C130.081 18.49 128.736 6.27718 128.736 5.74619L128.109 0.436279L122.73 0.790274C122.192 0.790274 109.819 1.58676 93.9501 6.36568C72.5224 12.8261 54.9499 23.5344 43.205 37.3402C31.4601 51.146 23.7497 70.0847 21.06 92.0323C19.6255 103.449 19.8945 112.741 20.1635 117.52L2.59096 139.468C-0.0987091 142.653 -0.188365 147.078 2.50131 149.291C5.19098 151.503 9.5841 150.707 12.2738 147.521L29.8463 125.573C34.6877 125.042 44.0119 123.626 55.1292 120.352C76.5569 113.891 94.1294 103.183 105.874 89.3773C117.619 75.5716 125.33 56.6329 128.109 34.6852ZM52.8878 45.3936C67.5017 28.2248 90.3639 20.614 105.516 17.251L82.9224 43.8006L84.2673 34.0657C84.5362 32.1188 83.1914 30.6143 81.3086 30.7028C79.4259 30.7913 77.6327 32.3843 77.3638 34.3312L74.7638 53.3584L54.8602 76.722L57.4602 57.4294C57.7292 55.4824 56.3844 53.9779 54.5016 54.0664C52.6188 54.1549 50.8257 55.7479 50.5567 57.6949L46.7015 86.2799L33.8808 101.325C34.598 86.0144 38.2739 62.5623 52.8878 45.3936ZM43.5636 109.378L70.9086 77.253L97.8053 68.8457C99.688 68.2262 101.033 66.2792 100.764 64.4207C100.495 62.5623 98.7915 61.5888 96.9087 62.1198L78.9776 67.6952L115.109 25.2159C114.392 40.5261 110.716 63.9783 96.1018 81.2355C81.5776 98.4927 58.7154 106.104 43.5636 109.378Z" fill="#FFB930"/>
</g>
<defs>
<clipPath id="clip0">
<rect width="150.098" height="150.107" fill="white" transform="translate(0.52832 0.436279)"/>
</clipPath>
</defs>
</svg>
