<svg width="151" height="151" viewBox="0 0 151 151" fill="none" xmlns="http://www.w3.org/2000/svg">
<g clip-path="url(#clip0)">
<path d="M101.451 45.0277H91.3042V63.747H101.451C109.04 63.747 112.922 60.215 112.922 54.3873C112.834 48.4713 109.04 45.0277 101.451 45.0277Z" fill="#EF809A"/>
<path d="M140.54 2.11438H10.4795C4.92065 2.11438 0.508789 6.6176 0.508789 12.0921V152.222L30.4208 122.2H140.54C146.099 122.2 150.511 117.697 150.511 112.223V12.0921C150.511 6.5293 146.099 2.11438 140.54 2.11438ZM68.3625 45.0274H51.1564V88.6469H38.7152V45.0274H21.5091V34.8731H68.3625V45.0274ZM113.098 88.6469L102.775 73.6361H102.157H91.304V88.6469H78.8628V34.8731H102.157C116.54 34.8731 125.54 42.2902 125.54 54.3871C125.54 62.4222 121.481 68.3382 114.51 71.3404L126.599 88.6469H113.098V88.6469Z" fill="#EF809A"/>
</g>
<defs>
<clipPath id="clip0">
<rect width="150.098" height="150.107" fill="white" transform="translate(0.508789 0.436279)"/>
</clipPath>
</defs>
</svg>
